<mxfile host="app.diagrams.net" modified="2022-12-19T05:17:51.078Z" agent="5.0 (Windows NT 10.0; Win64; x64) AppleWebKit/537.36 (KHTML, like Gecko) Chrome/108.0.0.0 Safari/537.36 Edg/108.0.1462.54" etag="hFNgTZKR05V0sfrv4Rm8" version="20.7.4" type="github">
  <diagram id="ynjoO9istzIF9ylkS43N" name="Page-1">
    <mxGraphModel dx="2237" dy="796" grid="1" gridSize="10" guides="1" tooltips="1" connect="1" arrows="1" fold="1" page="1" pageScale="1" pageWidth="850" pageHeight="1100" math="0" shadow="0">
      <root>
        <mxCell id="0" />
        <mxCell id="1" parent="0" />
        <mxCell id="2Sy6KE3K7NTMabQ1g_q5-18" style="edgeStyle=orthogonalEdgeStyle;rounded=0;orthogonalLoop=1;jettySize=auto;html=1;exitX=0.5;exitY=1;exitDx=0;exitDy=0;entryX=0.5;entryY=0;entryDx=0;entryDy=0;" parent="1" source="2Sy6KE3K7NTMabQ1g_q5-1" target="2Sy6KE3K7NTMabQ1g_q5-4" edge="1">
          <mxGeometry relative="1" as="geometry" />
        </mxCell>
        <mxCell id="2Sy6KE3K7NTMabQ1g_q5-19" style="edgeStyle=orthogonalEdgeStyle;rounded=0;orthogonalLoop=1;jettySize=auto;html=1;exitX=1;exitY=0.5;exitDx=0;exitDy=0;entryX=0.597;entryY=-0.017;entryDx=0;entryDy=0;entryPerimeter=0;" parent="1" source="2Sy6KE3K7NTMabQ1g_q5-1" target="2Sy6KE3K7NTMabQ1g_q5-5" edge="1">
          <mxGeometry relative="1" as="geometry" />
        </mxCell>
        <mxCell id="2Sy6KE3K7NTMabQ1g_q5-20" style="edgeStyle=orthogonalEdgeStyle;rounded=0;orthogonalLoop=1;jettySize=auto;html=1;exitX=0;exitY=0.5;exitDx=0;exitDy=0;entryX=0.397;entryY=0.01;entryDx=0;entryDy=0;entryPerimeter=0;" parent="1" source="2Sy6KE3K7NTMabQ1g_q5-1" target="2Sy6KE3K7NTMabQ1g_q5-3" edge="1">
          <mxGeometry relative="1" as="geometry" />
        </mxCell>
        <mxCell id="2Sy6KE3K7NTMabQ1g_q5-1" value="Apparel (Sub)" style="rounded=1;whiteSpace=wrap;html=1;" parent="1" vertex="1">
          <mxGeometry x="160" y="280" width="120" height="60" as="geometry" />
        </mxCell>
        <mxCell id="2Sy6KE3K7NTMabQ1g_q5-23" style="edgeStyle=orthogonalEdgeStyle;rounded=0;orthogonalLoop=1;jettySize=auto;html=1;exitX=0;exitY=0.5;exitDx=0;exitDy=0;entryX=0.43;entryY=-0.003;entryDx=0;entryDy=0;entryPerimeter=0;" parent="1" source="2Sy6KE3K7NTMabQ1g_q5-2" target="2Sy6KE3K7NTMabQ1g_q5-6" edge="1">
          <mxGeometry relative="1" as="geometry" />
        </mxCell>
        <mxCell id="2Sy6KE3K7NTMabQ1g_q5-24" style="edgeStyle=orthogonalEdgeStyle;rounded=0;orthogonalLoop=1;jettySize=auto;html=1;exitX=0.5;exitY=1;exitDx=0;exitDy=0;entryX=0.5;entryY=0;entryDx=0;entryDy=0;" parent="1" source="2Sy6KE3K7NTMabQ1g_q5-2" target="2Sy6KE3K7NTMabQ1g_q5-7" edge="1">
          <mxGeometry relative="1" as="geometry" />
        </mxCell>
        <mxCell id="2Sy6KE3K7NTMabQ1g_q5-25" style="edgeStyle=orthogonalEdgeStyle;rounded=0;orthogonalLoop=1;jettySize=auto;html=1;exitX=1;exitY=0.5;exitDx=0;exitDy=0;entryX=0.5;entryY=0;entryDx=0;entryDy=0;" parent="1" source="2Sy6KE3K7NTMabQ1g_q5-2" target="2Sy6KE3K7NTMabQ1g_q5-8" edge="1">
          <mxGeometry relative="1" as="geometry" />
        </mxCell>
        <mxCell id="2Sy6KE3K7NTMabQ1g_q5-2" value="Sporting Goods (Sub)" style="rounded=1;whiteSpace=wrap;html=1;" parent="1" vertex="1">
          <mxGeometry x="580" y="280" width="120" height="60" as="geometry" />
        </mxCell>
        <mxCell id="2Sy6KE3K7NTMabQ1g_q5-3" value="Product Development" style="rounded=1;whiteSpace=wrap;html=1;" parent="1" vertex="1">
          <mxGeometry x="30" y="370" width="120" height="60" as="geometry" />
        </mxCell>
        <mxCell id="2Sy6KE3K7NTMabQ1g_q5-4" value="Marketing" style="rounded=1;whiteSpace=wrap;html=1;" parent="1" vertex="1">
          <mxGeometry x="160" y="370" width="120" height="60" as="geometry" />
        </mxCell>
        <mxCell id="2Sy6KE3K7NTMabQ1g_q5-5" value="Sales" style="rounded=1;whiteSpace=wrap;html=1;" parent="1" vertex="1">
          <mxGeometry x="290" y="370" width="120" height="60" as="geometry" />
        </mxCell>
        <mxCell id="2Sy6KE3K7NTMabQ1g_q5-6" value="Product Development" style="rounded=1;whiteSpace=wrap;html=1;" parent="1" vertex="1">
          <mxGeometry x="450" y="370" width="120" height="60" as="geometry" />
        </mxCell>
        <mxCell id="2Sy6KE3K7NTMabQ1g_q5-7" value="Marketing" style="rounded=1;whiteSpace=wrap;html=1;" parent="1" vertex="1">
          <mxGeometry x="580" y="370" width="120" height="60" as="geometry" />
        </mxCell>
        <mxCell id="2Sy6KE3K7NTMabQ1g_q5-8" value="Sales" style="rounded=1;whiteSpace=wrap;html=1;" parent="1" vertex="1">
          <mxGeometry x="710" y="370" width="120" height="60" as="geometry" />
        </mxCell>
        <mxCell id="2Sy6KE3K7NTMabQ1g_q5-21" style="edgeStyle=orthogonalEdgeStyle;rounded=0;orthogonalLoop=1;jettySize=auto;html=1;entryX=0.5;entryY=0;entryDx=0;entryDy=0;" parent="1" source="2Sy6KE3K7NTMabQ1g_q5-9" target="2Sy6KE3K7NTMabQ1g_q5-1" edge="1">
          <mxGeometry relative="1" as="geometry" />
        </mxCell>
        <mxCell id="2Sy6KE3K7NTMabQ1g_q5-22" style="edgeStyle=orthogonalEdgeStyle;rounded=0;orthogonalLoop=1;jettySize=auto;html=1;exitX=1;exitY=0.5;exitDx=0;exitDy=0;entryX=0.5;entryY=0;entryDx=0;entryDy=0;" parent="1" source="2Sy6KE3K7NTMabQ1g_q5-9" target="2Sy6KE3K7NTMabQ1g_q5-2" edge="1">
          <mxGeometry relative="1" as="geometry" />
        </mxCell>
        <mxCell id="2Sy6KE3K7NTMabQ1g_q5-28" style="edgeStyle=orthogonalEdgeStyle;rounded=0;orthogonalLoop=1;jettySize=auto;html=1;exitX=1;exitY=0.25;exitDx=0;exitDy=0;" parent="1" source="2Sy6KE3K7NTMabQ1g_q5-9" target="2Sy6KE3K7NTMabQ1g_q5-27" edge="1">
          <mxGeometry relative="1" as="geometry" />
        </mxCell>
        <mxCell id="2Sy6KE3K7NTMabQ1g_q5-9" value="&lt;span style=&quot;color: rgb(34, 34, 34); font-family: segoe-ui_normal, &amp;quot;Segoe UI&amp;quot;, Segoe, &amp;quot;Segoe WP&amp;quot;, &amp;quot;Helvetica Neue&amp;quot;, Helvetica, sans-serif; font-size: 16px; text-align: left; background-color: rgb(255, 255, 255);&quot;&gt;Tailwind Traders&lt;/span&gt;" style="rounded=1;whiteSpace=wrap;html=1;" parent="1" vertex="1">
          <mxGeometry x="370" y="50" width="120" height="60" as="geometry" />
        </mxCell>
        <mxCell id="2Sy6KE3K7NTMabQ1g_q5-27" value="IT (Sub)" style="rounded=1;whiteSpace=wrap;html=1;" parent="1" vertex="1">
          <mxGeometry x="380" y="170" width="120" height="60" as="geometry" />
        </mxCell>
        <mxCell id="2Sy6KE3K7NTMabQ1g_q5-29" value="(1)" style="text;html=1;align=center;verticalAlign=middle;resizable=0;points=[];autosize=1;strokeColor=none;fillColor=none;" parent="1" vertex="1">
          <mxGeometry y="5" width="40" height="30" as="geometry" />
        </mxCell>
        <mxCell id="2Sy6KE3K7NTMabQ1g_q5-30" value="(2)" style="text;html=1;align=center;verticalAlign=middle;resizable=0;points=[];autosize=1;strokeColor=none;fillColor=none;" parent="1" vertex="1">
          <mxGeometry y="495" width="40" height="30" as="geometry" />
        </mxCell>
        <mxCell id="2Sy6KE3K7NTMabQ1g_q5-31" value="&lt;ol style=&quot;box-sizing: border-box; margin-top: 1rem; margin-bottom: 1rem; color: rgb(34, 34, 34); font-family: segoe-ui_normal, &amp;quot;Segoe UI&amp;quot;, Segoe, &amp;quot;Segoe WP&amp;quot;, &amp;quot;Helvetica Neue&amp;quot;, Helvetica, sans-serif; font-size: 16px; font-style: normal; font-variant-ligatures: normal; font-variant-caps: normal; font-weight: 400; letter-spacing: normal; orphans: 2; text-align: left; text-indent: 0px; text-transform: none; widows: 2; word-spacing: 0px; -webkit-text-stroke-width: 0px; background-color: rgb(255, 255, 255); text-decoration-thickness: initial; text-decoration-style: initial; text-decoration-color: initial;&quot;&gt;&lt;li style=&quot;box-sizing: border-box;&quot;&gt;&lt;ul style=&quot;box-sizing: border-box; margin-top: 1rem; margin-bottom: 0px;&quot;&gt;&lt;li style=&quot;box-sizing: border-box;&quot;&gt;&lt;p style=&quot;box-sizing: border-box; margin-top: 1rem; margin-bottom: 0px;&quot;&gt;What are different ways Tailwind Traders could organize their subscriptions and management groups. Which would be the best to meet their requirements?&lt;/p&gt;&lt;/li&gt;&lt;li style=&quot;box-sizing: border-box;&quot;&gt;&lt;p style=&quot;box-sizing: border-box; margin-top: 1rem; margin-bottom: 0px;&quot;&gt;Design two alternative hierarchies and explain your decision-making process.&lt;/p&gt;&lt;/li&gt;&lt;/ul&gt;&lt;/li&gt;&lt;li style=&quot;box-sizing: border-box;&quot;&gt;&lt;/li&gt;&lt;/ol&gt;&lt;br class=&quot;Apple-interchange-newline&quot;&gt;" style="text;whiteSpace=wrap;html=1;" parent="1" vertex="1">
          <mxGeometry x="-750" y="20" width="560" height="200" as="geometry" />
        </mxCell>
      </root>
    </mxGraphModel>
  </diagram>
</mxfile>
